<?xml version="1.0" encoding="UTF-8" standalone="no"?>
<svg
   xmlns:dc="http://purl.org/dc/elements/1.1/"
   xmlns:cc="http://creativecommons.org/ns#"
   xmlns:rdf="http://www.w3.org/1999/02/22-rdf-syntax-ns#"
   xmlns:svg="http://www.w3.org/2000/svg"
   xmlns="http://www.w3.org/2000/svg"
   xmlns:sodipodi="http://sodipodi.sourceforge.net/DTD/sodipodi-0.dtd"
   xmlns:inkscape="http://www.inkscape.org/namespaces/inkscape"
   version="1.1"
   id="svg845"
   width="642"
   height="450"
   viewBox="0 0 642 450"
   sodipodi:docname="winter_teal.svg"
   inkscape:version="1.0.1 (3bc2e813f5, 2020-09-07)">
  <metadata
     id="metadata851">
    <rdf:RDF>
      <cc:Work
         rdf:about="">
        <dc:format>image/svg+xml</dc:format>
        <dc:type
           rdf:resource="http://purl.org/dc/dcmitype/StillImage" />
        <dc:title />
      </cc:Work>
    </rdf:RDF>
  </metadata>
  <defs
     id="defs849" />
  <sodipodi:namedview
     pagecolor="#ffffff"
     bordercolor="#666666"
     borderopacity="1"
     objecttolerance="10"
     gridtolerance="10"
     guidetolerance="10"
     inkscape:pageopacity="0"
     inkscape:pageshadow="2"
     inkscape:window-width="1920"
     inkscape:window-height="1027"
     id="namedview847"
     showgrid="false"
     inkscape:zoom="1.6386293"
     inkscape:cx="321"
     inkscape:cy="225"
     inkscape:window-x="-8"
     inkscape:window-y="-8"
     inkscape:window-maximized="1"
     inkscape:current-layer="g853"
     inkscape:document-rotation="0" />
  <g
     inkscape:groupmode="layer"
     inkscape:label="Image"
     id="g853">
    <path
       style="fill:#218f8d;stroke:none;stroke-width:0.5"
       d="m 540,195 c 4.105,-15.0395 7.24,-29.287 5.355,-45 C 539.66,102.521 500.74,67.28 453.5,64.0445 c -14.078,-0.964 -29.029,2.079 -42,7.4615 -5.4275,2.252 -10.465,6.2305 -16,7.994 C 389.768,63.844 373.792,49.0142 361.5,38.4348 311.874,-4.276705 238.033,-11.9648 180.5,19.15435 141.1875,40.41825 113.0005,77.096 101.2125,120 c -3.061,11.1415 -4.04,22.572 -5.1275,34 -0.358,3.758 1.4215,10.608 -0.599,13.8625 -1.5575,2.5085 -6.901,3.4255 -9.486,4.5685 -7.482,3.308 -14.7005,7.3675 -21.5,11.9025 C 45.5861,196.9475 29.5229,214.1175 18.43095,234 -14.46195,292.9615 -1.504465,368.2495 48.5,413.415 60.8655,424.584 75.565,433.408 91,439.6 c 12.919,5.1825 27.0695,8.9005 41,9.8555 27.6365,1.894 55.782,0.5445 83.5,0.5445 h 151 110 c 16.2395,0 32.835,0.9555 49,-0.585 20.47,-1.9505 40.16,-8.9585 57.5,-19.9415 C 594.57,422.143 604.925,412.659 613.5,402 660.945,343.0145 646.45,252.417 582,211.975 569.59,204.1865 554.695,196.9785 540,195 Z"
       id="path839" />
  </g>
</svg>
