<?xml version="1.0" encoding="UTF-8" standalone="no"?>
<svg
   xmlns:dc="http://purl.org/dc/elements/1.1/"
   xmlns:cc="http://creativecommons.org/ns#"
   xmlns:rdf="http://www.w3.org/1999/02/22-rdf-syntax-ns#"
   xmlns:svg="http://www.w3.org/2000/svg"
   xmlns="http://www.w3.org/2000/svg"
   xmlns:sodipodi="http://sodipodi.sourceforge.net/DTD/sodipodi-0.dtd"
   xmlns:inkscape="http://www.inkscape.org/namespaces/inkscape"
   version="1.1"
   id="svg833"
   width="642"
   height="450"
   viewBox="0 0 642 450"
   sodipodi:docname="winter_gray.svg"
   inkscape:version="1.0.1 (3bc2e813f5, 2020-09-07)">
  <metadata
     id="metadata839">
    <rdf:RDF>
      <cc:Work
         rdf:about="">
        <dc:format>image/svg+xml</dc:format>
        <dc:type
           rdf:resource="http://purl.org/dc/dcmitype/StillImage" />
        <dc:title />
      </cc:Work>
    </rdf:RDF>
  </metadata>
  <defs
     id="defs837" />
  <sodipodi:namedview
     pagecolor="#ffffff"
     bordercolor="#666666"
     borderopacity="1"
     objecttolerance="10"
     gridtolerance="10"
     guidetolerance="10"
     inkscape:pageopacity="0"
     inkscape:pageshadow="2"
     inkscape:window-width="1920"
     inkscape:window-height="1027"
     id="namedview835"
     showgrid="false"
     inkscape:zoom="0.93"
     inkscape:cx="-11.778029"
     inkscape:cy="364.56057"
     inkscape:window-x="-8"
     inkscape:window-y="-8"
     inkscape:window-maximized="1"
     inkscape:current-layer="g841"
     inkscape:document-rotation="0" />
  <g
     inkscape:groupmode="layer"
     inkscape:label="Image"
     id="g841">
    <path
       style="fill:#b5b5b5;fill-opacity:1;stroke:#b5b5b5;stroke-width:0.5;stroke-opacity:1"
       d="m 542.15054,193.92473 c 4.09,-14.992 6.935,-28.8555 5.415,-44.5 -4.635,-47.7015 -45.1,-83.249497 -91.915,-86.455497 -14.078,-0.964 -29.029,2.079 -42,7.4615 -5.437,2.2555 -10.4425,6.235 -16,7.994 -5.728,-15.645 -21.7165,-30.4932 -34,-41.0652 -49.6195,-42.7059496 -123.4755,-50.3951 -181,-19.28045 -39.3125,21.2639 -67.4995,57.94165 -79.2875,100.845647 -3.061,11.1415 -4.040003,22.572 -5.127503,34 -0.358,3.758 1.4215,10.608 -0.599,13.8625 -1.5575,2.5085 -6.901,3.4255 -9.486,4.5685 -7.482,3.308 -14.7005,7.3675 -21.5,11.9025 -18.977499,12.6565 -35.439699,30.049 -46.3457,50.1665 -36.3822,67.1115 -15.0159496,153.096 50.3457,193.7875 21.376,13.308 45.546003,19.959 70.500003,21.668 25.0755,1.717 50.859,0.0445 76,0.0445 h 151.5 110 c 16.2395,0 32.835,0.9555 49,-0.585 20.47,-1.9505 40.16,-8.9585 57.5,-19.9415 11.57,-7.3305 21.925,-16.8145 30.5,-27.4735 47.445,-58.9855 32.95,-149.583 -31.5,-190.025 -12.405,-7.7855 -27.315,-14.9975 -42,-16.975 z"
       id="path849"
       inkscape:export-xdpi="192"
       inkscape:export-ydpi="192" />
  </g>
</svg>
