<?xml version="1.0" encoding="UTF-8" standalone="no"?>
<svg
   xmlns:dc="http://purl.org/dc/elements/1.1/"
   xmlns:cc="http://creativecommons.org/ns#"
   xmlns:rdf="http://www.w3.org/1999/02/22-rdf-syntax-ns#"
   xmlns:svg="http://www.w3.org/2000/svg"
   xmlns="http://www.w3.org/2000/svg"
   xmlns:sodipodi="http://sodipodi.sourceforge.net/DTD/sodipodi-0.dtd"
   xmlns:inkscape="http://www.inkscape.org/namespaces/inkscape"
   version="1.1"
   id="svg833"
   width="642"
   height="450"
   viewBox="0 0 642 450"
   sodipodi:docname="winter_yellow.svg"
   inkscape:version="1.0.1 (3bc2e813f5, 2020-09-07)">
  <metadata
     id="metadata839">
    <rdf:RDF>
      <cc:Work
         rdf:about="">
        <dc:format>image/svg+xml</dc:format>
        <dc:type
           rdf:resource="http://purl.org/dc/dcmitype/StillImage" />
        <dc:title />
      </cc:Work>
    </rdf:RDF>
  </metadata>
  <defs
     id="defs837" />
  <sodipodi:namedview
     pagecolor="#ffffff"
     bordercolor="#666666"
     borderopacity="1"
     objecttolerance="10"
     gridtolerance="10"
     guidetolerance="10"
     inkscape:pageopacity="0"
     inkscape:pageshadow="2"
     inkscape:window-width="1920"
     inkscape:window-height="1027"
     id="namedview835"
     showgrid="false"
     inkscape:zoom="1.86"
     inkscape:cx="321"
     inkscape:cy="225"
     inkscape:window-x="-8"
     inkscape:window-y="-8"
     inkscape:window-maximized="1"
     inkscape:current-layer="g841"
     inkscape:document-rotation="0" />
  <g
     inkscape:groupmode="layer"
     inkscape:label="Image"
     id="g841">
    <path
       style="fill:#fde725;stroke:none;stroke-width:0.5"
       d="m 540,195 c 4.09,-14.992 6.935,-28.8555 5.415,-44.5 -4.635,-47.7015 -45.1,-83.2495 -91.915,-86.4555 -14.078,-0.964 -29.029,2.079 -42,7.4615 -5.437,2.2555 -10.4425,6.235 -16,7.994 C 389.772,63.855 373.7835,49.0068 361.5,38.4348 311.8805,-4.27115 238.0245,-11.9603 180.5,19.15435 141.1875,40.41825 113.0005,77.096 101.2125,120 c -3.061,11.1415 -4.04,22.572 -5.1275,34 -0.358,3.758 1.4215,10.608 -0.599,13.8625 -1.5575,2.5085 -6.901,3.4255 -9.486,4.5685 -7.482,3.308 -14.7005,7.3675 -21.5,11.9025 C 45.5225,196.99 29.0603,214.3825 18.1543,234.5 -18.2279,301.6115 3.13835,387.596 68.5,428.2875 c 21.376,13.308 45.546,19.959 70.5,21.668 25.0755,1.717 50.859,0.0445 76,0.0445 h 151.5 110 c 16.2395,0 32.835,0.9555 49,-0.585 20.47,-1.9505 40.16,-8.9585 57.5,-19.9415 C 594.57,422.143 604.925,412.659 613.5,402 660.945,343.0145 646.45,252.417 582,211.975 569.595,204.1895 554.685,196.9775 540,195 Z"
       id="path2580" />
  </g>
</svg>
