<?xml version="1.0" encoding="UTF-8" standalone="no"?>
<svg
   xmlns:dc="http://purl.org/dc/elements/1.1/"
   xmlns:cc="http://creativecommons.org/ns#"
   xmlns:rdf="http://www.w3.org/1999/02/22-rdf-syntax-ns#"
   xmlns:svg="http://www.w3.org/2000/svg"
   xmlns="http://www.w3.org/2000/svg"
   xmlns:sodipodi="http://sodipodi.sourceforge.net/DTD/sodipodi-0.dtd"
   xmlns:inkscape="http://www.inkscape.org/namespaces/inkscape"
   viewBox="0 0 640 512"
   version="1.1"
   id="svg835"
   sodipodi:docname="crow-green.svg"
   inkscape:version="1.0.1 (3bc2e813f5, 2020-09-07)">
  <metadata
     id="metadata841">
    <rdf:RDF>
      <cc:Work
         rdf:about="">
        <dc:format>image/svg+xml</dc:format>
        <dc:type
           rdf:resource="http://purl.org/dc/dcmitype/StillImage" />
        <dc:title></dc:title>
      </cc:Work>
    </rdf:RDF>
  </metadata>
  <defs
     id="defs839" />
  <sodipodi:namedview
     pagecolor="#ffffff"
     bordercolor="#666666"
     borderopacity="1"
     objecttolerance="10"
     gridtolerance="10"
     guidetolerance="10"
     inkscape:pageopacity="0"
     inkscape:pageshadow="2"
     inkscape:window-width="1920"
     inkscape:window-height="1027"
     id="namedview837"
     showgrid="false"
     inkscape:zoom="1.6347656"
     inkscape:cx="320"
     inkscape:cy="256"
     inkscape:window-x="-8"
     inkscape:window-y="-8"
     inkscape:window-maximized="1"
     inkscape:current-layer="svg835" />
  <!--! Font Awesome Pro 6.2.1 by @fontawesome - https://fontawesome.com License - https://fontawesome.com/license (Commercial License) Copyright 2022 Fonticons, Inc. -->
  <path
     d="M456 0c-48.6 0-88 39.4-88 88v29.2L12.5 390.6c-14 10.8-16.6 30.9-5.9 44.9s30.9 16.6 44.9 5.9L126.1 384H259.2l46.6 113.1c5 12.3 19.1 18.1 31.3 13.1s18.1-19.1 13.1-31.3L311.1 384H352c1.1 0 2.1 0 3.2 0l46.6 113.2c5 12.3 19.1 18.1 31.3 13.1s18.1-19.1 13.1-31.3l-42-102C484.9 354.1 544 280 544 192V128v-8l80.5-20.1c8.6-2.1 13.8-10.8 11.6-19.4C629 52 603.4 32 574 32H523.9C507.7 12.5 483.3 0 456 0zm0 112c-13.3 0-24-10.7-24-24s10.7-24 24-24s24 10.7 24 24s-10.7 24-24 24z"
     id="path833"
     style="fill:#a1fd3d;fill-opacity:1" />
</svg>
