<?xml version="1.0" encoding="UTF-8" standalone="no"?>
<svg
   xmlns:dc="http://purl.org/dc/elements/1.1/"
   xmlns:cc="http://creativecommons.org/ns#"
   xmlns:rdf="http://www.w3.org/1999/02/22-rdf-syntax-ns#"
   xmlns:svg="http://www.w3.org/2000/svg"
   xmlns="http://www.w3.org/2000/svg"
   xmlns:sodipodi="http://sodipodi.sourceforge.net/DTD/sodipodi-0.dtd"
   xmlns:inkscape="http://www.inkscape.org/namespaces/inkscape"
   version="1.1"
   id="svg833"
   width="642"
   height="450"
   viewBox="0 0 642 450"
   sodipodi:docname="winter_green.svg"
   inkscape:version="1.0.1 (3bc2e813f5, 2020-09-07)">
  <metadata
     id="metadata839">
    <rdf:RDF>
      <cc:Work
         rdf:about="">
        <dc:format>image/svg+xml</dc:format>
        <dc:type
           rdf:resource="http://purl.org/dc/dcmitype/StillImage" />
        <dc:title />
      </cc:Work>
    </rdf:RDF>
  </metadata>
  <defs
     id="defs837" />
  <sodipodi:namedview
     pagecolor="#ffffff"
     bordercolor="#666666"
     borderopacity="1"
     objecttolerance="10"
     gridtolerance="10"
     guidetolerance="10"
     inkscape:pageopacity="0"
     inkscape:pageshadow="2"
     inkscape:window-width="1920"
     inkscape:window-height="1027"
     id="namedview835"
     showgrid="false"
     inkscape:zoom="1.86"
     inkscape:cx="321"
     inkscape:cy="225"
     inkscape:window-x="-8"
     inkscape:window-y="-8"
     inkscape:window-maximized="1"
     inkscape:current-layer="g841"
     inkscape:document-rotation="0" />
  <g
     inkscape:groupmode="layer"
     inkscape:label="Image"
     id="g841">
    <path
       style="fill:#5dc763;stroke:none;stroke-width:0.5"
       d="m 540,195 c 4.005,-12.31 6.845,-25.475 5.955,-38.5 C 542.865,111.4155 509.76,71.6305 464,65.143 448.575,62.9555 432.266,63.9005 417.5,69.2175 409.924,71.9455 403.025,77.102 395.5,79.5 389.768,63.844 373.792,49.0142 361.5,38.4348 311.87,-4.279905 238.035,-11.96595 180.5,19.15435 141.1875,40.41825 113.0005,77.096 101.2125,120 c -3.064,11.152 -4.0395,22.564 -5.1275,34 -0.358,3.758 1.4215,10.608 -0.599,13.8625 -1.5575,2.5085 -6.901,3.4255 -9.486,4.5685 -7.4965,3.3145 -14.688,7.359 -21.5,11.9025 C 45.5861,196.9475 29.5229,214.1175 18.43095,234 -14.4637,292.9645 -1.509795,368.245 48.5,413.415 60.86,424.579 75.567,433.4275 91,439.6 c 12.9405,5.1755 27.0525,8.899 41,9.8555 27.6365,1.894 55.782,0.5445 83.5,0.5445 h 151 110 c 16.2395,0 32.835,0.9555 49,-0.585 20.47,-1.9505 40.16,-8.9585 57.5,-19.9415 C 594.57,422.143 604.925,412.659 613.5,402 660.95,343.0115 646.455,252.4195 582,211.975 569.59,204.1865 554.695,196.9785 540,195 Z"
       id="path1999" />
  </g>
</svg>
